<svg id="Capa_1" data-name="Capa 1" xmlns="http://www.w3.org/2000/svg" viewBox="0 0 151.44 42.84"><defs><style>.cls-1{fill:#f7c7cc;}.cls-2,.cls-4{fill:#434756;}.cls-3{fill:#f7b2bf;}.cls-4{font-size:38.77px;font-family:FrankfurterMediumStd, Frankfurter Medium Std;}</style></defs><path class="cls-1" d="M16.63,3.05a17.4,17.4,0,0,1,4.15-.63c.55,0,1.71-.14,3.27-.14a42,42,0,0,1,7.07.47l1,.17s.14,0,.09.11a32.78,32.78,0,0,1,3.21,1.82c2.35,1.52,4.82,3.12,6.63,6A14.36,14.36,0,0,1,44,16c.12.72.31,1.79.54,3.1.38,2.09.39,2,.47,2.56A11,11,0,0,1,43,30.39a15,15,0,0,1-4.83,4.06,22.3,22.3,0,0,1-5.91,2.21c-.65.15-1.3.29-2,.4-.86.15-1.72.24-2.58.31a38.2,38.2,0,0,1-4.41.11,28.72,28.72,0,0,1-8.72-1.6,19.24,19.24,0,0,1-6.78-4,12.46,12.46,0,0,1-3-4.24A10.21,10.21,0,0,1,4,22.18c.17-1.42.48-2.81.73-4.21a19.48,19.48,0,0,1,.39-2.06,16.63,16.63,0,0,1,2.35-4.7h0c1.88-2.6,3.47-4.78,5.88-6.45A11.71,11.71,0,0,1,16.63,3.05ZM24.55,16.6a12.07,12.07,0,0,0-4.5.83,8.28,8.28,0,0,0-3.95,3.08,5.31,5.31,0,0,0-.65,5,3.9,3.9,0,0,0,.17.48,7.41,7.41,0,0,0,3,3.19A10.89,10.89,0,0,0,24,30.72a11.55,11.55,0,0,0,6.17-1.44,7.58,7.58,0,0,0,2.89-2.73,5.34,5.34,0,0,0,.28-5.26,7.09,7.09,0,0,0-2.79-3,10.69,10.69,0,0,0-4.23-1.54C25.73,16.67,25.1,16.62,24.55,16.6Zm11,4.15a5.31,5.31,0,0,0,0,.69,4.54,4.54,0,0,0,1.15,2.61,2.46,2.46,0,0,0,2.72.77A3,3,0,0,0,41,23.46a5.1,5.1,0,0,0,.71-3.17,4.64,4.64,0,0,0-1.08-2.71,2.6,2.6,0,0,0-1.81-1,2.53,2.53,0,0,0-2.2.95A4.76,4.76,0,0,0,35.52,20.75Zm-21.75,0c0-.26,0-.51,0-.76a4.56,4.56,0,0,0-1.15-2.54,2.49,2.49,0,0,0-2.86-.7,3.15,3.15,0,0,0-1.53,1.42,5.18,5.18,0,0,0-.61,3.27A4.44,4.44,0,0,0,8.65,24a2.54,2.54,0,0,0,2.32.94,2.71,2.71,0,0,0,1.8-1.09A4.93,4.93,0,0,0,13.77,20.77Z" transform="translate(-0.56 -0.79)"/><path class="cls-2" d="M35.52,20.75a4.76,4.76,0,0,1,1.13-3.21,2.53,2.53,0,0,1,2.2-.95,2.6,2.6,0,0,1,1.81,1,4.64,4.64,0,0,1,1.08,2.71A5.1,5.1,0,0,1,41,23.46a3,3,0,0,1-1.61,1.36,2.46,2.46,0,0,1-2.72-.77,4.54,4.54,0,0,1-1.15-2.61A5.31,5.31,0,0,1,35.52,20.75Z" transform="translate(-0.56 -0.79)"/><path class="cls-2" d="M13.77,20.77a4.93,4.93,0,0,1-1,3.07A2.71,2.71,0,0,1,11,24.93,2.54,2.54,0,0,1,8.65,24a4.44,4.44,0,0,1-1.08-2.53,5.18,5.18,0,0,1,.61-3.27,3.15,3.15,0,0,1,1.53-1.42,2.49,2.49,0,0,1,2.86.7A4.56,4.56,0,0,1,13.72,20C13.75,20.26,13.76,20.51,13.77,20.77Z" transform="translate(-0.56 -0.79)"/><path class="cls-3" d="M24.52,30.72A12.44,12.44,0,0,1,18.15,29a7.32,7.32,0,0,1-2.82-2.81,5.22,5.22,0,0,1,.48-5.86,8,8,0,0,1,3.28-2.57,13.65,13.65,0,0,1,6.48-1.16A10.61,10.61,0,0,1,33,20a5.24,5.24,0,0,1,1.28,4.86,5.91,5.91,0,0,1-2,3.17,11.33,11.33,0,0,1-5.41,2.45A14.86,14.86,0,0,1,24.52,30.72Z" transform="translate(-0.56 -0.79)"/><path class="cls-2" d="M20.26,25.33a2,2,0,1,0-2.06-2A2,2,0,0,0,20.26,25.33Z" transform="translate(-0.56 -0.79)"/><path class="cls-2" d="M28.9,25.33a2,2,0,1,0-2-2A2,2,0,0,0,28.9,25.33Z" transform="translate(-0.56 -0.79)"/><path class="cls-3" d="M10.69,2.61A10.16,10.16,0,0,1,13.85,3a2.74,2.74,0,0,1,.9.42,1.14,1.14,0,0,1,.36,1.17,5.65,5.65,0,0,1-.76,1.89,33.28,33.28,0,0,1-3.43,4.66,17.81,17.81,0,0,1-1.4,1.6,9.89,9.89,0,0,1-3.47,2,14.72,14.72,0,0,1-4.25.8A4.36,4.36,0,0,1,1,15.49c-.11,0-.16-.06-.17-.18a30,30,0,0,1-.23-5.19,15,15,0,0,1,.4-3A4.48,4.48,0,0,1,3.6,4,14.54,14.54,0,0,1,7.2,2.92,24.78,24.78,0,0,1,10.69,2.61Z" transform="translate(-0.56 -0.79)"/><path class="cls-3" d="M48.08,11.19a36.33,36.33,0,0,1-.25,4.08c0,.16-.08.21-.22.23a5,5,0,0,1-1.28,0,14.69,14.69,0,0,1-4-.89A9.48,9.48,0,0,1,39,12.59a16.25,16.25,0,0,1-1.27-1.48,38.25,38.25,0,0,1-2.55-3.27,12.11,12.11,0,0,1-1.46-2.6A2.27,2.27,0,0,1,33.54,4a.9.9,0,0,1,.51-.67,6.41,6.41,0,0,1,2.75-.67A21,21,0,0,1,41.74,3a12.36,12.36,0,0,1,3.69,1.24,5.56,5.56,0,0,1,1.15.84,3.91,3.91,0,0,1,.88,1.53,10.54,10.54,0,0,1,.57,3C48.07,10.22,48.07,10.81,48.08,11.19Z" transform="translate(-0.56 -0.79)"/><text class="cls-4" transform="translate(49.95 32.49) scale(1.09 1)">Piggy</text></svg>